<?xml version="1.0" encoding="UTF-8" standalone="no"?><svg xmlns="http://www.w3.org/2000/svg" xmlns:xlink="http://www.w3.org/1999/xlink" contentScriptType="application/ecmascript" contentStyleType="text/css" height="450px" preserveAspectRatio="none" style="width:362px;height:450px;background:#FFFFFF;" version="1.1" viewBox="0 0 362 450" width="362px" zoomAndPan="magnify"><defs><filter height="300%" id="f9wgtq1rnf951" width="300%" x="-1" y="-1"><feGaussianBlur result="blurOut" stdDeviation="2.0"/><feColorMatrix in="blurOut" result="blurOut2" type="matrix" values="0 0 0 0 0 0 0 0 0 0 0 0 0 0 0 0 0 0 .4 0"/><feOffset dx="4.0" dy="4.0" in="blurOut2" result="blurOut3"/><feBlend in="SourceGraphic" in2="blurOut3" mode="normal"/></filter></defs><g><text fill="#000000" font-family="sans-serif" font-size="18" lengthAdjust="spacing" textLength="193" x="83.5" y="27.4023">Android View 测量流程</text><text fill="#000000" font-family="sans-serif" font-size="18" lengthAdjust="spacing" textLength="0" x="183" y="48.6016"/><polygon fill="#FFFF88" filter="url(#f9wgtq1rnf951)" points="100.5,52.3984,200.5,52.3984,207.5,74.8867,255.5,74.8867,255.5,212.1523,100.5,212.1523,100.5,52.3984" style="stroke:#000000;stroke-width:2.0;"/><line style="stroke:#000000;stroke-width:2.0;" x1="100.5" x2="207.5" y1="74.8867" y2="74.8867"/><text fill="#000000" font-family="sans-serif" font-size="14" lengthAdjust="spacing" textLength="94" x="104.5" y="67.9336">ViewRootImpl</text><rect fill="#FEFECE" filter="url(#f9wgtq1rnf951)" height="34.1328" rx="12.5" ry="12.5" style="stroke:#A80036;stroke-width:1.5;" width="135" x="110.5" y="88.8867"/><text fill="#000000" font-family="sans-serif" font-size="12" lengthAdjust="spacing" textLength="115" x="120.5" y="110.4883">performTraversals()</text><rect fill="#FEFECE" filter="url(#f9wgtq1rnf951)" height="34.1328" rx="12.5" ry="12.5" style="stroke:#A80036;stroke-width:1.5;" width="112" x="122" y="158.0195"/><text fill="#000000" font-family="sans-serif" font-size="12" lengthAdjust="spacing" textLength="92" x="132" y="179.6211">performLayout()</text><rect fill="#000000" filter="url(#f9wgtq1rnf951)" height="6" rx="2.5" ry="2.5" style="stroke:#000000;stroke-width:1.0;" width="334" x="11" y="232.1523"/><polygon fill="#FFFF55" filter="url(#f9wgtq1rnf951)" points="23,248.1523,61,248.1523,68,270.6406,122,270.6406,122,407.9063,23,407.9063,23,248.1523" style="stroke:#000000;stroke-width:2.0;"/><line style="stroke:#000000;stroke-width:2.0;" x1="23" x2="68" y1="270.6406" y2="270.6406"/><text fill="#000000" font-family="sans-serif" font-size="14" lengthAdjust="spacing" textLength="32" x="27" y="263.6875">View</text><rect fill="#FEFECE" filter="url(#f9wgtq1rnf951)" height="34.1328" rx="12.5" ry="12.5" style="stroke:#A80036;stroke-width:1.5;" width="54" x="45.5" y="284.6406"/><text fill="#000000" font-family="sans-serif" font-size="12" lengthAdjust="spacing" textLength="34" x="55.5" y="306.2422">layout</text><rect fill="#FEFECE" filter="url(#f9wgtq1rnf951)" height="34.1328" rx="12.5" ry="12.5" style="stroke:#A80036;stroke-width:1.5;" width="79" x="33" y="353.7734"/><text fill="#000000" font-family="sans-serif" font-size="12" lengthAdjust="spacing" textLength="59" x="43" y="375.375">onLayout()</text><polygon fill="#FFFF11" filter="url(#f9wgtq1rnf951)" points="150,248.1523,231,248.1523,238,270.6406,333,270.6406,333,407.9063,150,407.9063,150,248.1523" style="stroke:#000000;stroke-width:2.0;"/><line style="stroke:#000000;stroke-width:2.0;" x1="150" x2="238" y1="270.6406" y2="270.6406"/><text fill="#000000" font-family="sans-serif" font-size="14" lengthAdjust="spacing" textLength="75" x="154" y="263.6875">ViewGroup</text><rect fill="#FEFECE" filter="url(#f9wgtq1rnf951)" height="34.1328" rx="12.5" ry="12.5" style="stroke:#A80036;stroke-width:1.5;" width="54" x="168.5" y="284.6406"/><text fill="#000000" font-family="sans-serif" font-size="12" lengthAdjust="spacing" textLength="34" x="178.5" y="306.2422">layout</text><path d="M251,358.1846 L251,366.8398 L231,370.8398 L251,374.8398 L251,383.4951 A0,0 0 0 0 251,383.4951 L323,383.4951 A0,0 0 0 0 323,383.4951 L323,368.1846 L313,358.1846 L251,358.1846 A0,0 0 0 0 251,358.1846 " fill="#FBFB77" filter="url(#f9wgtq1rnf951)" style="stroke:#A80036;stroke-width:1.0;"/><path d="M313,358.1846 L313,368.1846 L323,368.1846 L313,358.1846 " fill="#FBFB77" style="stroke:#A80036;stroke-width:1.0;"/><text fill="#000000" font-family="sans-serif" font-size="13" lengthAdjust="spacing" textLength="51" x="257" y="375.7529">abstract</text><rect fill="#FEFECE" filter="url(#f9wgtq1rnf951)" height="34.1328" rx="12.5" ry="12.5" style="stroke:#A80036;stroke-width:1.5;" width="71" x="160" y="353.7734"/><text fill="#000000" font-family="sans-serif" font-size="12" lengthAdjust="spacing" textLength="51" x="170" y="375.375">onLayout</text><rect fill="#000000" filter="url(#f9wgtq1rnf951)" height="6" rx="2.5" ry="2.5" style="stroke:#000000;stroke-width:1.0;" width="334" x="11" y="427.9063"/><line style="stroke:#A80036;stroke-width:1.5;" x1="178" x2="178" y1="123.0195" y2="158.0195"/><polygon fill="#A80036" points="174,148.0195,178,158.0195,182,148.0195,178,152.0195" style="stroke:#A80036;stroke-width:1.0;"/><line style="stroke:#A80036;stroke-width:1.5;" x1="72.5" x2="72.5" y1="318.7734" y2="353.7734"/><polygon fill="#A80036" points="68.5,343.7734,72.5,353.7734,76.5,343.7734,72.5,347.7734" style="stroke:#A80036;stroke-width:1.0;"/><line style="stroke:#A80036;stroke-width:1.5;" x1="195.5" x2="195.5" y1="318.7734" y2="353.7734"/><polygon fill="#A80036" points="191.5,343.7734,195.5,353.7734,199.5,343.7734,195.5,347.7734" style="stroke:#A80036;stroke-width:1.0;"/><line style="stroke:#A80036;stroke-width:1.5;" x1="72.5" x2="72.5" y1="238.1523" y2="284.6406"/><polygon fill="#A80036" points="68.5,274.6406,72.5,284.6406,76.5,274.6406,72.5,278.6406" style="stroke:#A80036;stroke-width:1.0;"/><line style="stroke:#A80036;stroke-width:1.5;" x1="195.5" x2="195.5" y1="238.1523" y2="284.6406"/><polygon fill="#A80036" points="191.5,274.6406,195.5,284.6406,199.5,274.6406,195.5,278.6406" style="stroke:#A80036;stroke-width:1.0;"/><line style="stroke:#A80036;stroke-width:1.5;" x1="72.5" x2="72.5" y1="387.9063" y2="427.9063"/><polygon fill="#A80036" points="68.5,417.9063,72.5,427.9063,76.5,417.9063,72.5,421.9063" style="stroke:#A80036;stroke-width:1.0;"/><line style="stroke:#A80036;stroke-width:1.5;" x1="195.5" x2="195.5" y1="387.9063" y2="427.9063"/><polygon fill="#A80036" points="191.5,417.9063,195.5,427.9063,199.5,417.9063,195.5,421.9063" style="stroke:#A80036;stroke-width:1.0;"/><line style="stroke:#A80036;stroke-width:1.5;" x1="178" x2="178" y1="192.1523" y2="232.1523"/><polygon fill="#A80036" points="174,222.1523,178,232.1523,182,222.1523,178,226.1523" style="stroke:#A80036;stroke-width:1.0;"/><!--MD5=[e56f3464c2eb037477163fdd163f72cd]
@startuml

title
Android View 测量流程

end title

package ViewRootImpl #ff8 {
:performTraversals();
:performLayout();
}
fork
package View #ff5 {
:layout;
:onLayout();
}
fork again
package ViewGroup #ff1 {
:layout;
:onLayout;
note right: abstract
}
fork end


@enduml

PlantUML version 1.2021.7(Sun May 23 20:40:07 CST 2021)
(GPL source distribution)
Java Runtime: OpenJDK Runtime Environment
JVM: OpenJDK 64-Bit Server VM
Default Encoding: UTF-8
Language: zh
Country: CN
--></g></svg>