<?xml version="1.0" encoding="UTF-8" standalone="no"?><svg xmlns="http://www.w3.org/2000/svg" xmlns:xlink="http://www.w3.org/1999/xlink" contentScriptType="application/ecmascript" contentStyleType="text/css" height="393px" preserveAspectRatio="none" style="width:216px;height:393px;background:#FFFFFF;" version="1.1" viewBox="0 0 216 393" width="216px" zoomAndPan="magnify"><defs><filter height="300%" id="f11z1o3njxgu0c" width="300%" x="-1" y="-1"><feGaussianBlur result="blurOut" stdDeviation="2.0"/><feColorMatrix in="blurOut" result="blurOut2" type="matrix" values="0 0 0 0 0 0 0 0 0 0 0 0 0 0 0 0 0 0 .4 0"/><feOffset dx="4.0" dy="4.0" in="blurOut2" result="blurOut3"/><feBlend in="SourceGraphic" in2="blurOut3" mode="normal"/></filter></defs><g><path d="M21,10 L21,37.7544 L189,37.7544 L189,20 L179,10 L21,10 " fill="#FBFB77" filter="url(#f11z1o3njxgu0c)" style="stroke:#A80036;stroke-width:1.0;"/><path d="M179,10 L179,20 L189,20 L179,10 " fill="#FBFB77" style="stroke:#A80036;stroke-width:1.0;"/><text fill="#000000" font-family="sans-serif" font-size="13" lengthAdjust="spacing" textLength="147" x="27" y="29.8979">类的初始化和实例化顺序;</text><rect fill="#FEFECE" filter="url(#f11z1o3njxgu0c)" height="36.3887" rx="12.5" ry="12.5" style="stroke:#A80036;stroke-width:1.5;" width="164" x="23" y="57.7544"/><text fill="#000000" font-family="sans-serif" font-size="12" lengthAdjust="spacing" textLength="144" x="33" y="81.5063">父类静态变量和静态代码块</text><rect fill="#FEFECE" filter="url(#f11z1o3njxgu0c)" height="36.3887" rx="12.5" ry="12.5" style="stroke:#A80036;stroke-width:1.5;" width="164" x="23" y="114.1431"/><text fill="#000000" font-family="sans-serif" font-size="12" lengthAdjust="spacing" textLength="144" x="33" y="137.895">子类静态变量和静态代码块</text><rect fill="#FEFECE" filter="url(#f11z1o3njxgu0c)" height="36.3887" rx="12.5" ry="12.5" style="stroke:#A80036;stroke-width:1.5;" width="188" x="11" y="170.5317"/><text fill="#000000" font-family="sans-serif" font-size="12" lengthAdjust="spacing" textLength="168" x="21" y="194.2837">父类普通成员变量和普通代码块</text><rect fill="#FEFECE" filter="url(#f11z1o3njxgu0c)" height="36.3887" rx="12.5" ry="12.5" style="stroke:#A80036;stroke-width:1.5;" width="104" x="53" y="226.9204"/><text fill="#000000" font-family="sans-serif" font-size="12" lengthAdjust="spacing" textLength="84" x="63" y="250.6724">父类的构造函数</text><rect fill="#FEFECE" filter="url(#f11z1o3njxgu0c)" height="36.3887" rx="12.5" ry="12.5" style="stroke:#A80036;stroke-width:1.5;" width="188" x="11" y="283.3091"/><text fill="#000000" font-family="sans-serif" font-size="12" lengthAdjust="spacing" textLength="168" x="21" y="307.061">子类普通成员变量和普通代码块</text><rect fill="#FEFECE" filter="url(#f11z1o3njxgu0c)" height="36.3887" rx="12.5" ry="12.5" style="stroke:#A80036;stroke-width:1.5;" width="104" x="53" y="339.6978"/><text fill="#000000" font-family="sans-serif" font-size="12" lengthAdjust="spacing" textLength="84" x="63" y="363.4497">子类的构造函数</text><line style="stroke:#A80036;stroke-width:1.5;" x1="105" x2="105" y1="37.7544" y2="57.7544"/><polygon fill="#A80036" points="101,47.7544,105,57.7544,109,47.7544,105,51.7544" style="stroke:#A80036;stroke-width:1.0;"/><line style="stroke:#A80036;stroke-width:1.5;" x1="105" x2="105" y1="94.1431" y2="114.1431"/><polygon fill="#A80036" points="101,104.1431,105,114.1431,109,104.1431,105,108.1431" style="stroke:#A80036;stroke-width:1.0;"/><line style="stroke:#A80036;stroke-width:1.5;" x1="105" x2="105" y1="150.5317" y2="170.5317"/><polygon fill="#A80036" points="101,160.5317,105,170.5317,109,160.5317,105,164.5317" style="stroke:#A80036;stroke-width:1.0;"/><line style="stroke:#A80036;stroke-width:1.5;" x1="105" x2="105" y1="206.9204" y2="226.9204"/><polygon fill="#A80036" points="101,216.9204,105,226.9204,109,216.9204,105,220.9204" style="stroke:#A80036;stroke-width:1.0;"/><line style="stroke:#A80036;stroke-width:1.5;" x1="105" x2="105" y1="263.3091" y2="283.3091"/><polygon fill="#A80036" points="101,273.3091,105,283.3091,109,273.3091,105,277.3091" style="stroke:#A80036;stroke-width:1.0;"/><line style="stroke:#A80036;stroke-width:1.5;" x1="105" x2="105" y1="319.6978" y2="339.6978"/><polygon fill="#A80036" points="101,329.6978,105,339.6978,109,329.6978,105,333.6978" style="stroke:#A80036;stroke-width:1.0;"/><!--MD5=[8c869d6dee1e9279105a151b648e6dbd]
@startuml
note left: 类的初始化和实例化顺序;
:父类静态变量和静态代码块;

:子类静态变量和静态代码块;

:父类普通成员变量和普通代码块;

:父类的构造函数;

:子类普通成员变量和普通代码块;

:子类的构造函数;

@enduml

PlantUML version 1.2021.7(Sun May 23 20:40:07 CST 2021)
(GPL source distribution)
Java Runtime: OpenJDK Runtime Environment
JVM: OpenJDK 64-Bit Server VM
Default Encoding: GBK
Language: zh
Country: CN
--></g></svg>